<svg xmlns="http://www.w3.org/2000/svg" xmlns:xlink="http://www.w3.org/1999/xlink" viewBox="0 0 550 400"><path fill="#fff" d="M119.8 187.2v-36.8h29.15v-18.2H100.5v135.55h19.3V205.4h23.15v-18.2H119.8m64.05-55h-19.3v135.55h19.3V132.2m38.75 0h-19.35l.15 135.55h48.45v-18.2H222.6V132.2m227.9 114.1h-4.3v17.3h-13v-17.3h-4.15v21.45h21.45V246.3m0-4.4v-21.45h-21.45v21.45h21.45m-4.3-17.2v12.9h-13v-12.9h13m4.3-30.25h-21.45v21.45h21.45v-4.05h-17.3v-4.55h17.3v-4.25h-17.3v-4.3h17.3v-4.3m-4.3-4.3h4.3v-4.3h-4.3v4.3m-17.15-14.7v4.3h21.45V158.3h-21.45v4.05h17.15v13.1h-17.15m21.45-38.85v-4.4h-21.45v21.6h21.45v-4.3h-8.6v-12.9h8.6m-17.3 0h4.4v12.9h-4.4v-12.9m-75.55-4.4H342.2l-31.3 98.6-30.95-98.6H264.5l.1 135.55h19.2v-69.8l21.7 69.8h11.05l21.8-69.7v69.7h19.3V132.2m37.4.7q-5.65 1-10.5 4.15-4.85 2.95-8.05 7.8-3.25 5.1-4.6 10.95-.25 1.05-.35 1.95-.8 4.75-.25 9.95.15 1.1.25 2.25.45 4.6 2.05 9.45 2.25 8.15 9.15 22.95 6.75 14.55 8.65 20.8 1.5 5.2 1.5 9.5.2 4.5-1.6 8.45-1.8 4.4-5.2 6.65-4.05 2.6-14.55 1.95v18.05q9.95 0 14.55-.8 6.35-1.25 11.75-4.95 5.2-4.05 8.8-9.5 3.2-5.2 4.1-10.95.1-.35.1-.55.1-.35.1-.7.35-2.7.25-6.2 0-2.5-.35-5.3-.55-4.75-1.7-10.65-2.25-8.1-8.15-21-6.85-14.45-8.45-19.2-3.4-10.25-2.35-17.4.75-4.3 3.25-7 2.85-3.4 12.3-3.6h.9V132.3q-.45-.1-.9 0-6.3 0-10.7.6z" id="a"/><use xlink:href="#a"/></svg>