<svg xmlns="http://www.w3.org/2000/svg" viewBox="0 0 30 30"><path fill="#fff" d="M13.8 19.7c-1.7-.2-3.2-.6-4.6-1.6l-.5-.4c-.6-.6-.6-1.2-.2-1.8.4-.6 1-.7 1.7-.4l.4.2c2.5 1.7 5.8 1.7 8.3.1.2-.2.5-.3.8-.4.6-.2 1.1.1 1.5.6.4.6.4 1.2-.1 1.6-.7.7-1.5 1.2-2.4 1.6-.9.3-1.8.5-2.7.6.1.2.2.2.3.3l3.8 3.8c.4.4.5 1 .3 1.5-.3.6-.8.9-1.4.9-.4 0-.6-.2-.9-.5l-2.9-2.9c-.3-.3-.4-.2-.6 0-1 1-1.9 2-2.9 2.9-.4.4-1 .5-1.5.3-.5-.3-.9-.8-.9-1.4 0-.4.2-.7.5-.9l3.8-3.8.2-.3zm1.1-4.4c-3 0-5.5-2.5-5.5-5.6 0-3.1 2.5-5.6 5.6-5.6 3.1 0 5.5 2.5 5.5 5.6 0 3.2-2.5 5.6-5.6 5.6zm2.8-5.5c0-1.5-1.2-2.7-2.7-2.7-1.5 0-2.7 1.2-2.7 2.8 0 1.5 1.2 2.7 2.7 2.7 1.5-.1 2.7-1.3 2.7-2.8zm0 0"/></svg>