<svg xmlns="http://www.w3.org/2000/svg" viewBox="0 0 30 30"><path fill="#fff" d="M24.5 20.3c0-.1 0-.1-.1-.1-.3-.6-1-1.4-2-2.3-.4-.4-.7-.7-.8-.9-.2-.3-.3-.6-.1-.8.1-.2.4-.7.9-1.4.3-.4.5-.7.7-.9 1.2-1.6 1.7-2.6 1.6-3.1l-.1-.1c0-.1-.1-.1-.3-.2-.2-.1-.4-.1-.7 0h-3.4l-.1.1-.1.2c-.3.8-.7 1.6-1.1 2.3-.3.4-.5.8-.7 1.1-.2.3-.4.5-.5.7l-.4.4c-.1.1-.2.1-.3.1h-.2c-.1-.1-.2-.1-.2-.3-.1-.1-.1-.2-.1-.4v-4l-.1-.3c0-.1-.1-.2-.2-.2-.1-.1-.2-.1-.3-.1-.4-.1-.8-.1-1.4-.1-1.3 0-2.1.1-2.5.3l-.4.3c-.1.2-.1.2-.1.3.4.1.7.2.9.4l.1.1c0 .1.1.2.1.5 0 .2.1.5.1.8V14c0 .4-.1.6-.1.8 0 .2-.1.4-.1.5-.1.1-.1.2-.1.2l-.1.1-.3.1c-.1 0-.2 0-.4-.1-.1-.1-.3-.2-.4-.4-.1-.2-.3-.4-.5-.7-.2-.3-.4-.7-.6-1.1l-.4-.4c-.1-.2-.2-.5-.4-.8-.2-.5-.3-.8-.5-1.2-.1-.1-.1-.3-.3-.3h-.1s-.1-.1-.2-.1-.2-.1-.2-.1H5.1c-.3 0-.5.1-.6.2v.3c0 .1 0 .2.1.3.4 1 .9 1.9 1.4 2.8.5.9.9 1.6 1.3 2.2.4.6.7 1.1 1.1 1.6l.7.9.3.3.3.3c.2.2.4.4.7.6.3.2.7.5 1.1.7.4.2.8.4 1.4.6.5.1 1 .2 1.5.2h1.2c.2 0 .4-.1.6-.2v-.1s.1-.1.1-.2v-.3c0-.3 0-.6.1-.8.1-.2.1-.4.2-.5l.2-.3.2-.2h.1c.2-.1.4 0 .6.2l.6.6c.2.2.4.5.7.8l.7.7.2.1c.1.1.3.2.5.2.2.1.4.1.6.1h2.7c.3 0 .5 0 .6-.1l.3-.3v-.4c-.1-.3-.1-.4-.1-.5zm0 0"/></svg>